<svg width="511" height="512" viewBox="0 0 511 512" fill="none" xmlns="http://www.w3.org/2000/svg">
<path fill-rule="evenodd" clip-rule="evenodd" d="M239.671 1.3185C201.109 8.3165 173.216 38.1645 167.276 78.7875C164.084 100.622 169.8 123.979 182.837 142.365C187.371 148.76 199.195 160.466 203.969 163.287L206.829 164.977V263.824C206.829 318.191 206.561 362.94 206.234 363.268C205.906 363.595 194.693 354.154 181.315 342.286C167.937 330.418 155.155 319.757 152.91 318.594C143.786 313.867 129.191 316.932 121.086 325.277C113.038 333.564 110.529 346.168 114.984 355.935C116.272 358.759 134.273 380.593 161.704 412.605L206.329 464.68V484.111C206.329 505.022 207.002 508.914 210.926 510.702C214.416 512.292 215.677 512.141 218.694 509.767L221.329 507.695V483.367V459.04L175.224 405.228C149.866 375.631 128.686 350.278 128.157 348.888C125.864 342.857 131.138 333.876 138.22 331.755C141.145 330.878 142.652 330.948 145.377 332.089C147.276 332.884 157.154 340.92 167.329 349.949C211.562 389.199 211.127 388.84 214.316 388.84C215.996 388.84 218.214 387.955 219.329 386.84C221.304 384.865 221.329 383.506 221.331 277.59C221.332 177.459 221.448 170.112 223.081 166.911C225.8 161.579 229.484 159.411 235.829 159.411C242.174 159.411 245.858 161.579 248.577 166.911C250.194 170.081 250.326 175.757 250.327 242.09C250.329 312.506 250.366 313.877 252.329 315.84C255.307 318.818 260.659 318.506 263.256 315.204C265.102 312.858 265.331 311.189 265.344 299.954C265.353 291.934 265.808 286.464 266.594 284.936C269.67 278.95 278.606 276.257 285.641 279.197C292.137 281.911 293.281 286.063 293.307 307.017L293.329 324.695L295.964 326.767C298.97 329.132 300.245 329.291 303.672 327.73C307.466 326.001 308.329 322.69 308.329 309.858C308.329 303.32 308.768 296.816 309.304 295.406C311.54 289.526 321.68 287.015 329.055 290.514C335.298 293.477 336.282 297.354 336.307 319.09C336.327 336.49 336.473 337.984 338.329 339.84C340.856 342.367 345.407 342.407 348.468 339.93C350.692 338.13 350.858 337.219 351.329 324.18C351.622 316.073 352.333 309.462 353.044 308.22C354.622 305.468 360.235 302.835 364.48 302.855C369.104 302.878 375.254 306.65 377.475 310.824C379.124 313.924 379.329 316.827 379.329 337.12V359.931L381.784 362.385C384.934 365.536 388.748 365.512 391.938 362.322L394.455 359.803L394.142 335.072L393.829 310.34L391.039 304.658C387.873 298.212 383.019 293.511 376.38 290.461C370.458 287.74 357.394 287.517 352.718 290.057L349.606 291.747L346.498 286.951C339.062 275.475 323.526 270.733 310.09 275.839C306.6 277.165 304.706 277.469 304.463 276.742C303.516 273.902 297.666 268.662 292.766 266.264C285.975 262.942 276.763 262.091 270.079 264.168L265.329 265.643V222.37V179.096L269.579 178.426C283.088 176.296 298.542 169.601 310.164 160.843C326.135 148.809 336.764 132.242 342.022 111.192C344.716 100.406 344.451 77.7995 341.503 66.9065C331.769 30.9385 305.57 7.2925 268.829 1.3125C258.067 -0.439498 249.349 -0.437498 239.671 1.3185ZM274.616 17.7675C308.571 26.5285 331.069 58.2065 328.998 94.3395C328.292 106.658 326.421 113.851 321.066 124.84C317.705 131.736 315.21 135.061 307.844 142.462C300.086 150.256 297.388 152.248 289.297 156.152C280.332 160.478 269.944 163.84 265.543 163.84C264.306 163.84 263.33 162.983 262.979 161.59C261.727 156.619 256.271 150.937 249.593 147.649C243.989 144.891 241.907 144.4 235.906 144.425C228.673 144.455 221.116 146.913 217.111 150.537C214.695 152.723 212.27 151.531 204.5 144.338C186.235 127.428 177.943 101.647 182.738 76.6775C188.896 44.6085 211.778 21.5175 243.058 15.8085C250.146 14.5155 265.77 15.4855 274.616 17.7675ZM235.349 51.1235C230.451 53.6025 230.299 54.8755 230.573 91.0625C230.881 131.613 230.015 129.117 243.967 129.697C258.475 130.301 266.43 129.132 272.468 125.511C285.33 117.798 288.312 100.19 278.665 88.9195C275.267 84.9495 275.252 84.8885 276.884 81.7335C277.855 79.8555 278.529 76.1805 278.529 72.7645C278.529 62.1025 271.561 53.2495 261.329 50.9155C254.964 49.4625 238.368 49.5965 235.349 51.1235ZM261.272 67.2885C263.971 69.7305 264.001 75.1675 261.329 77.8395C259.71 79.4585 257.996 79.8395 252.329 79.8395H245.329V73.0065C245.329 69.2475 245.667 65.8305 246.079 65.4115C247.555 63.9125 259.121 65.3415 261.272 67.2885ZM266.406 97.7625C269.737 101.093 270.22 105.217 267.822 109.853C265.949 113.476 260.751 115.051 252.048 114.636L245.829 114.34L245.543 104.59L245.257 94.8395H254.37C263.109 94.8395 263.603 94.9595 266.406 97.7625ZM71.3292 111.34C62.1062 113.204 52.5342 116.895 44.4162 121.718C34.0192 127.894 31.8162 132.418 36.7842 137.385C39.9932 140.595 42.6512 140.482 48.2412 136.901C62.3112 127.886 75.2002 124.37 91.3292 125.15C111.149 126.109 126.588 133.021 140.829 147.31C150.699 157.213 155.203 164.026 158.894 174.638C165.785 194.454 164.039 216.154 154.011 235.34C150.916 241.26 147.489 245.702 140.829 252.425C133.188 260.138 130.394 262.214 122.329 266.169C111.674 271.395 104.527 273.472 94.0022 274.406C57.7722 277.62 23.5712 251.005 15.9092 213.632C12.9702 199.296 14.4782 184.445 20.2722 170.653C23.8532 162.13 24.0502 159.561 21.3292 156.84C18.8162 154.327 13.2112 154.19 11.1002 156.59C8.48015 159.571 5.47715 166.319 2.67715 175.518C0.289154 183.362 -0.00784644 185.947 0.000153564 198.84C0.0111536 215.631 1.66915 223.368 8.27615 237.467C13.3832 248.366 19.3082 256.621 27.9672 264.901C39.6742 276.096 51.6282 282.878 66.8292 286.952C78.2322 290.008 97.4442 290.055 109.538 287.056C125.322 283.143 138.047 276.137 149.705 264.943C161.491 253.625 168.31 243 173.211 228.319C186.455 188.643 172.082 147.622 136.909 124.715C117.567 112.118 92.6392 107.034 71.3292 111.34ZM405.829 111.342C360.708 119.868 328.372 162.707 333.374 207.331C337.191 241.387 353.906 266.409 381.829 279.866C404.873 290.973 433.876 291.747 457.559 281.888C483.153 271.233 501.16 249.8 508.427 221.34C511.627 208.807 511.659 188.941 508.498 177.34C505.713 167.119 498.921 153.07 492.941 145.163C472.85 118.598 438.339 105.199 405.829 111.342ZM440.329 127.477C443.904 128.264 451.082 130.972 456.28 133.494C464.197 137.336 467.141 139.49 474.41 146.759C481.735 154.084 483.795 156.912 487.62 164.889C493.846 177.876 495.697 185.818 495.764 199.84C495.823 211.992 494.716 218.083 490.611 228.185C483 246.914 465.797 263.39 446.803 270.139C398.651 287.249 347.852 251.346 348.044 200.34C348.234 150.191 390.809 116.575 440.329 127.477ZM85.8292 160.785C84.7292 161.236 83.1102 162.445 82.2302 163.472C80.3772 165.638 56.3292 229.029 56.3292 231.75C56.3292 235.142 60.1972 238.84 63.7472 238.84C67.8122 238.84 69.5972 236.93 72.4132 229.572L74.6072 223.84H88.8872H103.168L104.81 228.783C107.214 236.021 109.763 238.84 113.902 238.84C117.934 238.84 121.329 235.935 121.329 232.485C121.329 231.189 115.89 215.552 109.242 197.735C95.2462 160.225 93.5882 157.61 85.8292 160.785ZM414.829 161.165C403.106 164.159 392.573 172.818 387.509 183.622C385.136 188.686 384.829 190.541 384.829 199.84C384.829 209.161 385.133 210.988 387.532 216.108C391.004 223.518 399.197 231.681 406.829 235.336C411.737 237.686 414.518 238.288 422.113 238.645C430.888 239.058 431.736 238.914 437.613 236.019C449.232 230.296 453.705 222.771 448.551 217.618C445.333 214.399 441.229 214.914 436.27 219.159C426.148 227.822 410.065 224.332 402.579 211.848C394.373 198.163 401.502 180.753 417.178 176.195C423.635 174.318 428.549 174.904 435.378 178.365C441.314 181.373 442.331 181.413 445.694 178.767C449.322 175.914 449.331 170.673 445.714 167.321C439.654 161.705 424.521 158.688 414.829 161.165ZM94.4152 201.09L97.2792 208.84H88.8292H80.3792L83.4572 200.59C85.1502 196.053 87.0212 190.995 87.6142 189.351L88.6912 186.362L90.1212 189.851C90.9082 191.77 92.8402 196.828 94.4152 201.09ZM381.329 395.84C379.964 397.205 379.323 399.19 379.312 402.09C379.285 408.728 376.655 419.546 373.354 426.6C369.895 433.992 367.048 437.792 355.579 450.324L347.329 459.337V483.517V507.695L349.964 509.767C354.249 513.138 358.491 512.361 360.866 507.768C362.006 505.564 362.329 500.55 362.329 485.049V465.16L370.212 456.53C385.787 439.479 392.338 425.635 393.964 406.34C394.486 400.137 394.305 399.027 392.369 396.59C389.655 393.174 384.355 392.814 381.329 395.84Z" fill="#364A3E"/>
</svg>
