<svg width="390" height="334" viewBox="0 0 390 334" fill="none" xmlns="http://www.w3.org/2000/svg">
<path fill-rule="evenodd" clip-rule="evenodd" d="M100.894 0.580315C72.4067 5.61231 52.0517 15.1033 33.6157 31.9543C6.88268 56.3863 -6.82532 102.011 3.38168 132.584C12.8227 160.864 41.3067 198.743 86.0277 242.492C113.706 269.568 150.629 301.889 181.12 325.732C195.737 337.162 194.639 337.307 214.592 321.326C250.502 292.566 276.645 269.269 306.967 239.008C339.873 206.167 359.2 183.001 373.36 159.424C386.162 138.109 390.577 123.574 389.573 106.037C387.893 76.6613 378.141 54.2463 358.413 34.4153C340.719 16.6283 316.676 4.69232 290.976 0.934318C277.833 -0.987682 257.369 0.158313 246.394 3.43031C229.921 8.34231 215.337 16.9393 201.771 29.7373L194.934 36.1863L187.256 29.1113C177.766 20.3673 168.45 14.0503 157.421 8.88232C143.937 2.56332 135.733 0.788315 118.394 0.440315C110.144 0.274315 102.269 0.337315 100.894 0.580315ZM137.709 18.9523C155.503 23.9953 171.495 34.9633 186.964 52.7323C190.711 57.0353 192.116 57.9823 194.76 57.9823C198.225 57.9823 199.119 57.2393 207.294 47.5653C217.458 35.5393 232.876 25.2953 248.885 19.9323C279.844 9.55931 321.763 20.6443 346.994 45.8753C354.16 53.0413 361.576 63.7533 365.475 72.5693C371.515 86.2263 374.919 107.8 372.845 119.267C368.698 142.185 348.596 172.095 309.603 213.365C283.709 240.77 235.59 284.179 201.112 311.235L195.055 315.988L184.224 307.301C106.261 244.762 45.5987 182.039 25.6257 143.315C18.4207 129.344 16.4517 122.229 16.5377 110.482C16.8857 63.4083 50.7457 25.6183 99.8937 17.4513C111.244 15.5653 128.122 16.2353 137.709 18.9523ZM291.989 40.2453C287.902 51.0603 287.392 53.2873 288.886 53.7993C293.205 55.2783 303.577 61.3863 309 65.6433C314.311 69.8123 322.729 79.3883 326.547 85.6043C327.647 87.3943 328.014 87.3183 334.392 83.9833C338.072 82.0593 341.263 80.1943 341.483 79.8383C342.289 78.5343 333.238 66.2843 326.414 59.4443C318.635 51.6463 313.197 47.6283 304.327 43.1263C294.08 37.9263 292.964 37.6653 291.989 40.2453Z" fill="#364A3E"/>
</svg>
