<svg width="418" height="496" viewBox="0 0 418 496" fill="none" xmlns="http://www.w3.org/2000/svg">
<path fill-rule="evenodd" clip-rule="evenodd" d="M203.327 2.14425C201.652 3.99325 201.382 6.20325 201.089 20.4773C200.825 33.3033 201.074 37.4693 202.273 40.3383C203.923 44.2873 207.035 45.7313 211.488 44.6143C216.123 43.4513 217.132 38.8263 216.755 20.4773C216.462 6.20325 216.192 3.99325 214.517 2.14425C211.927 -0.71475 205.917 -0.71475 203.327 2.14425ZM100.961 28.2302C98.0746 31.3272 98.4056 34.2943 102.543 42.4243C110.172 57.4203 117.056 68.1413 119.7 69.1473C125.75 71.4473 131.259 65.3323 129.002 58.8223C127.468 54.4003 114.221 31.1083 111.637 28.2913C108.901 25.3083 103.711 25.2782 100.961 28.2302ZM306.191 28.2913C303.517 31.1843 290.258 54.5143 288.823 58.8503C286.653 65.4083 292.113 71.4403 298.144 69.1473C302.051 67.6613 318.922 38.2003 318.922 32.8633C318.922 26.7463 310.436 23.6983 306.191 28.2913ZM191.727 68.1203C182.393 69.4893 179.678 70.4883 177.553 73.3333C175.12 76.5923 176.019 80.3193 179.922 83.1513C182.29 84.8703 182.949 84.8832 192.422 83.4092C204.599 81.5142 225.622 82.0332 237.422 84.5192C263.143 89.9392 285.85 102.202 304.311 120.643C321.867 138.179 332.803 157.45 339.72 183.041C342.094 191.822 342.288 194.13 342.291 213.541C342.293 233.905 342.198 234.9 339.154 246.38C335.535 260.027 327.653 277.234 319.729 288.785C316.81 293.041 308.648 302.374 301.59 309.527C283.92 327.434 276.48 340.087 274.169 356.162L273.396 361.541L255.159 361.814L236.922 362.086V327.564C236.922 294.374 236.845 292.964 234.922 291.041C231.944 288.063 226.592 288.374 223.995 291.676C221.99 294.224 221.922 295.43 221.922 328.176V362.041H211.422H200.922V303.541V245.041H211.348H221.774L222.098 259.632C222.408 273.569 222.528 274.308 224.783 276.132C227.842 278.606 231.003 278.552 234.287 275.968C236.914 273.902 236.922 273.854 236.922 259.585V245.274L246.8 244.877C255.654 244.521 257.178 244.17 261.515 241.489C274.905 233.211 278.703 216.321 269.906 204.177C257.518 187.076 230.904 191.004 224.085 210.94C223.445 212.81 222.922 217.872 222.922 222.19V230.041H212.07H201.218L200.641 221.141C199.483 203.254 190.399 193.73 174.422 193.652C159.308 193.577 148.922 204.029 148.922 219.313C148.922 230.497 155.506 239.866 165.957 243.553C168.321 244.387 173.634 245.041 178.048 245.041H185.922V303.541V362.041H168.092H150.263L148.505 353.791C145.234 338.435 136.595 323.562 124.256 312.044C115.787 304.139 107.381 294.5 102.333 286.907C66.8366 233.513 74.4335 163.402 120.531 118.972C131.135 108.752 139.285 102.848 151.422 96.5933C156.372 94.0423 160.985 91.2133 161.672 90.3073C164.959 85.9733 161.382 79.0413 155.858 79.0413C152.425 79.0413 141.588 84.2563 131.422 90.8003C98.6366 111.905 75.1636 146.988 67.2616 186.695C65.0386 197.867 64.7756 226.965 66.7986 238.041C72.7876 270.845 88.0606 298.429 114.208 323.666C127.498 336.495 133.507 348.466 134.808 364.708C135.575 374.281 137.314 377.041 142.577 377.041H145.922V386.041V395.041H139.995C134.782 395.041 133.817 395.359 131.995 397.676C129.245 401.171 129.377 404.587 132.377 407.586C134.392 409.602 135.822 410.041 140.377 410.041H145.922V418.041V426.041H139.995C134.782 426.041 133.817 426.359 131.995 428.676C129.245 432.171 129.377 435.587 132.377 438.586C134.392 440.602 135.822 441.041 140.377 441.041H145.922L145.932 444.291C145.945 448.712 149.889 456.818 154.02 460.913C157.875 464.734 164.21 467.979 167.922 468.034C171.287 468.085 172.027 468.756 174.807 474.283C178.178 480.987 186.123 488.522 193.809 492.306C200.011 495.359 200.998 495.541 211.401 495.541C221.721 495.541 222.851 495.338 229.163 492.348C237.122 488.577 244.348 481.734 248.481 474.051C251.179 469.035 251.782 468.522 255.775 467.847C267.033 465.942 276.922 455.058 276.922 444.573V441.041H282.287C289.146 441.041 292.922 438.42 292.922 433.66C292.922 428.274 290.925 426.615 283.755 426.045L277.422 425.541L277.13 417.791L276.838 410.041H282.245C289.148 410.041 292.922 407.432 292.922 402.66C292.922 397.274 290.925 395.615 283.755 395.045L277.422 394.541V386.058V377.575L281.2 376.961C285.994 376.182 287.846 373.719 287.908 368.041C287.99 360.512 290.699 349.941 294.555 342.106C297.556 336.009 300.759 332.045 312.361 320.07C336.378 295.282 348.553 273.754 355.077 244.541C357.647 233.034 358.679 205.753 356.994 193.866C350.363 147.07 321.498 106.024 279.794 84.0892C263.765 75.6572 247.691 70.4353 230.6 68.1073C221.619 66.8833 200.11 66.8913 191.727 68.1203ZM28.3766 106.496C25.2486 109.624 25.1606 114.009 28.1716 116.712C32.7336 120.806 57.0296 134.041 59.9836 134.041C65.9076 134.041 69.0936 126.787 65.1716 122.228C62.6576 119.305 35.7026 104.041 33.0546 104.041C31.8316 104.041 29.7266 105.146 28.3766 106.496ZM367.949 112.503C359.989 117.138 352.901 121.716 352.199 122.677C350.303 125.269 350.651 129.77 352.922 132.041C356.373 135.492 359.999 134.532 374.138 126.421C389.79 117.442 391.922 115.692 391.922 111.821C391.922 108.326 387.939 104.034 384.717 104.058C383.455 104.067 375.909 107.867 367.949 112.503ZM1.92156 209.041C-0.605443 211.568 -0.645444 216.12 1.83356 219.18C3.71856 221.509 3.99956 221.541 22.4216 221.541C40.8436 221.541 41.1246 221.509 43.0096 219.18C45.4886 216.12 45.4486 211.568 42.9216 209.041C41.0656 207.185 39.5886 207.041 22.4216 207.041C5.25456 207.041 3.77756 207.185 1.92156 209.041ZM374.922 209.041C372.395 211.568 372.355 216.12 374.834 219.18C376.719 221.509 377 221.541 395.422 221.541C413.844 221.541 414.125 221.509 416.01 219.18C418.489 216.12 418.449 211.568 415.922 209.041C414.066 207.185 412.589 207.041 395.422 207.041C378.255 207.041 376.778 207.185 374.922 209.041ZM179.361 209.195C183.455 211.061 185.207 214.798 185.717 222.756L186.185 230.041H178.454C170.994 230.041 170.602 229.921 167.322 226.641C164.599 223.918 163.922 222.452 163.922 219.276C163.922 211.058 171.948 205.818 179.361 209.195ZM254.569 209.967C258.748 212.516 260.52 217.698 258.896 222.618C257.172 227.844 252.975 230.033 244.672 230.037L237.922 230.041V222.676C237.922 216.666 238.316 214.81 240.06 212.593C243.837 207.791 249.361 206.791 254.569 209.967ZM46.3096 301.266C38.5476 305.817 31.4606 310.159 30.5596 310.913C28.2916 312.814 28.4086 319.267 30.7506 321.386C34.1966 324.505 38.1876 323.39 52.1096 315.421C66.3456 307.273 69.9216 304.296 69.9216 300.596C69.9216 297.345 66.9826 294.146 63.4216 293.519C60.9616 293.086 57.8796 294.482 46.3096 301.266ZM351.939 294.327C350.573 295.018 349.013 296.842 348.472 298.38C346.757 303.257 349.284 305.839 364.453 314.709C379.434 323.469 384.038 324.781 387.267 321.212C389.465 318.784 389.41 312.781 387.172 310.809C384.321 308.296 357.405 293.04 355.851 293.056C355.065 293.064 353.304 293.636 351.939 294.327ZM261.922 386.041V395.041H211.422H160.922V386.041V377.041H211.422H261.922V386.041ZM261.922 418.041V426.041H211.422H160.922V418.041V410.041H211.422H261.922V418.041ZM261.922 443.137C261.922 445.864 259.256 450.329 256.556 452.123C254.827 453.272 247.017 453.601 215.422 453.856C193.972 454.03 174.481 453.886 172.109 453.536C166.819 452.755 162.152 448.766 161.295 444.291L160.672 441.041H211.297H261.922V443.137ZM232.398 471.438C230.596 474.187 224.733 478.438 220.607 479.985C211.934 483.238 198.853 479.893 191.976 472.663L188.53 469.041H211.249H233.968L232.398 471.438Z" fill="#364A3E"/>
</svg>
