<svg width="364" height="492" viewBox="0 0 364 492" fill="none" xmlns="http://www.w3.org/2000/svg">
<path fill-rule="evenodd" clip-rule="evenodd" d="M171.677 1.60414C169.113 2.39314 162.279 6.16114 156.489 9.97614C139.248 21.3401 142.098 20.5301 119.338 20.5301C99.795 20.5301 99.209 20.5911 93.69 23.1781C85.124 27.1941 80.835 32.2121 73.296 47.0391C69.616 54.2751 65.12 61.6811 63.305 63.4971C61.489 65.3121 54.191 69.7531 47.086 73.3661C32.558 80.7541 27.387 85.1771 23.119 93.8661C20.359 99.4871 20.338 99.6811 20.338 119.53C20.338 142.193 21.088 139.475 10.292 155.952C2.37901 168.028 0.912012 171.427 0.167012 179.413C-0.677988 188.463 1.52401 194.72 10.448 208.619C14.654 215.17 18.715 221.983 19.471 223.759C20.51 226.197 20.785 231.588 20.593 245.759L20.338 264.53L23.598 271.172C27.901 279.941 32.406 283.795 46.765 290.993C53.338 294.289 60.355 298.423 62.356 300.18C66.679 303.975 78.33 326.304 77.338 328.892C76.993 329.793 63.195 352.035 46.676 378.319C21.846 417.826 16.749 426.54 17.267 428.603C18.439 433.272 20.396 433.415 51.981 431.132C68.127 429.966 82.771 429.015 84.523 429.021L87.709 429.03L99.523 459.136C111.884 490.632 113.194 492.91 118.221 491.649C120.082 491.182 127.409 480.206 150.978 442.574C167.676 415.914 181.563 394.104 181.838 394.107C182.113 394.111 196.003 415.924 212.706 442.582C236.224 480.119 243.612 491.186 245.463 491.651C250.481 492.91 251.797 490.621 264.153 459.136L275.967 429.03L279.653 429.024C281.68 429.02 296.313 429.975 312.172 431.146C343.233 433.439 345.232 433.291 346.409 428.603C346.927 426.54 341.83 417.826 317 378.319C300.481 352.035 286.683 329.793 286.338 328.892C285.346 326.304 296.997 303.975 301.32 300.18C303.321 298.423 310.338 294.289 316.911 290.993C331.27 283.795 335.775 279.941 340.078 271.172L343.338 264.53L343.083 245.759C342.892 231.658 343.169 226.185 344.195 223.759C344.947 221.983 349.015 215.143 353.236 208.559C362.173 194.618 364.352 188.437 363.509 179.413C362.764 171.427 361.297 168.028 353.384 155.952C342.588 139.475 343.338 142.193 343.338 119.53C343.338 99.6851 343.316 99.4861 340.559 93.8701C336.145 84.8831 331.613 81.0511 315.812 72.9461C299.371 64.5141 298.92 64.0431 289.725 45.7631C283.04 32.4741 278.367 27.1551 269.838 23.1271C264.488 20.6011 263.792 20.5301 244.338 20.5301C221.58 20.5301 224.425 21.3371 207.209 9.99114C192.368 0.210144 183.221 -1.94886 171.677 1.60414ZM187.973 13.0511C189.972 13.6061 197.137 17.6641 203.896 22.0671C220.375 32.8061 222.719 33.4251 243.436 32.5111L259.823 31.7881L265.306 34.4711C271.815 37.6551 272.451 38.4951 281.918 56.3821C290.516 72.6261 291.798 73.8671 309.752 83.3141C323.733 90.6701 327.311 93.5851 330.1 99.8891C331.871 103.893 331.978 105.69 331.324 120.502C330.424 140.908 331.102 143.52 341.475 159.619C355.197 180.914 355.216 183.37 341.808 204.109C331.05 220.75 330.422 223.11 331.324 243.558C331.999 258.843 331.915 260.067 329.89 264.645C326.711 271.832 324.696 273.48 309.639 281.202C292.559 289.963 289.234 293.281 280.924 309.859C270.633 330.388 267.591 332.447 248.338 331.916C221.347 331.171 219.979 331.505 202.876 343.004C191.506 350.649 188.288 352.03 181.838 352.03C175.388 352.03 172.17 350.649 160.8 343.004C143.674 331.489 142.307 331.157 115.162 331.933C104.238 332.245 102.519 332.054 98.436 330.077C92.282 327.099 89.926 324.027 82.323 309.074C74.059 292.822 70.564 289.417 53.197 280.696C39.103 273.618 36.978 271.861 33.786 264.645C31.761 260.067 31.677 258.843 32.352 243.558C33.254 223.11 32.626 220.75 21.868 204.109C8.46001 183.37 8.47901 180.914 22.201 159.619C32.574 143.52 33.252 140.908 32.352 120.502C31.697 105.67 31.803 103.899 33.582 99.9031C36.472 93.4091 40.433 90.2191 54.532 83.0301C62.236 79.1021 68.915 74.9171 71.412 72.4531C74.034 69.8661 78.045 63.5181 82.385 55.0871C89.829 40.6231 92.99 36.7351 99.73 33.7541C103.769 31.9671 105.527 31.8621 120.385 32.5171C140.738 33.4151 143.622 32.6851 158.493 22.8751C175.057 11.9471 179.122 10.5921 187.973 13.0511ZM157.338 56.9571C105.692 67.7181 66.744 106.962 56.744 158.315C54.351 170.6 54.186 192.029 56.386 204.645C65.12 254.729 103.724 295.023 154.254 306.797C169.564 310.365 193.26 310.495 208.338 307.094C253.16 296.984 288.871 264.771 302.921 221.775C307.157 208.814 308.838 197.676 308.838 182.575C308.838 150.125 299.029 123.559 277.805 98.5301C261.744 79.5891 238.482 65.2061 212.838 58.3601C199.613 54.8301 171.016 54.1071 157.338 56.9571ZM211.044 70.3241C248.106 80.1321 279.095 109.131 291.186 145.32C295.843 159.259 297.111 168.84 296.576 186.03C295.981 205.143 293.347 216.198 285.523 232.418C251.842 302.249 161.165 319.658 103.915 267.286C88.451 253.14 76.017 232.71 70.285 212.03C66.743 199.251 65.76 175.031 68.247 161.82C77.087 114.878 111.931 79.1031 158.718 68.9341C171.778 66.0961 197.664 66.7831 211.044 70.3241ZM163.094 83.0051C158.638 84.0631 156.838 85.7871 156.838 88.9971C156.838 94.4401 162.381 96.5011 169.274 93.6211C174.603 91.3951 174.927 85.7541 169.881 83.0531C167.759 81.9171 167.677 81.9171 163.094 83.0051ZM138.09 91.0021C124.947 96.9681 109.901 109.177 100.706 121.336C88.642 137.29 81.169 157.206 80.097 176.254C79.473 187.356 80.172 189.03 85.437 189.03C90.142 189.03 91.491 186.328 92.177 175.53C93.996 146.896 111.552 119.618 137.506 105.099C141.814 102.689 146.35 100.103 147.588 99.3511C151.906 96.7271 149.407 88.9931 144.259 89.0521C143.203 89.0641 140.427 89.9421 138.09 91.0021ZM179.044 110.707C178.332 110.993 173.292 120.132 167.845 131.017L157.94 150.807L151.639 151.866C148.173 152.448 138.588 153.886 130.338 155.061C114.276 157.349 111.838 158.401 111.838 163.047C111.838 165.223 114.915 168.762 127.53 181.09L143.222 196.426L139.555 217.941C134.244 249.106 134.632 249.384 162.683 234.53C172.551 229.305 181.179 225.03 181.857 225.03C182.536 225.03 191.193 229.305 201.097 234.53C220.193 244.606 223.748 245.623 226.29 241.744C227.649 239.67 227.447 237.458 224.121 217.941L220.454 196.426L236.146 181.09C248.761 168.762 251.838 165.223 251.838 163.047C251.838 158.151 249.651 157.344 227.569 154.088C216.163 152.406 206.609 151.03 206.339 151.03C206.069 151.03 201.373 142.089 195.903 131.16C185.484 110.342 184.11 108.675 179.044 110.707ZM189.367 145.098C193.201 152.835 197.086 159.844 198 160.673C199.043 161.619 205.69 163.057 215.842 164.531C224.741 165.823 232.216 167.074 232.454 167.312C232.692 167.55 227.25 173.157 220.362 179.772C213.474 186.386 207.839 192.413 207.84 193.164C207.841 193.915 209.129 201.843 210.702 210.78C212.275 219.718 213.35 227.03 213.092 227.03C212.834 227.03 206.209 223.655 198.37 219.53C190.532 215.405 183.107 212.03 181.87 212.03C180.634 212.03 173.209 215.405 165.37 219.53C157.532 223.655 150.892 227.03 150.616 227.03C150.34 227.03 151.401 219.718 152.974 210.78C154.547 201.843 155.835 193.897 155.836 193.123C155.837 192.349 150.202 186.323 143.313 179.732C136.424 173.14 130.955 167.579 131.161 167.374C131.366 167.169 138.854 165.905 147.802 164.566C157.743 163.078 164.705 161.554 165.704 160.648C166.603 159.832 170.475 152.835 174.309 145.098C178.144 137.36 181.532 131.03 181.838 131.03C182.144 131.03 185.532 137.36 189.367 145.098ZM92.316 340.563C99.57 344.112 105.338 344.776 121.245 343.894C137.281 343.005 138.743 343.336 150.095 350.411C157.431 354.983 157.964 355.589 166.228 368.73C171.151 376.557 174.47 382.823 174.057 383.505C159.559 407.42 118.214 471.801 117.694 471.269C117.297 470.863 112.402 458.927 106.816 444.745C99.629 426.496 96.016 418.538 94.455 417.515C92.522 416.248 88.939 416.32 65.394 418.1C50.624 419.216 37.731 419.995 36.743 419.83C35.31 419.59 40.112 411.313 60.555 378.78C74.639 356.367 86.381 338.03 86.65 338.03C86.919 338.03 89.468 339.17 92.316 340.563ZM303.285 379.03C323.62 411.394 328.371 419.59 326.935 419.83C325.946 419.995 313.052 419.216 298.282 418.1C274.737 416.32 271.154 416.248 269.221 417.515C267.66 418.538 264.047 426.496 256.86 444.745C251.274 458.927 246.38 470.861 245.985 471.267C245.589 471.672 230.074 447.822 211.506 418.267L177.747 364.53L184.543 363.944C192.941 363.22 195.851 361.984 208.411 353.808C225.433 342.727 224.968 342.861 242.555 343.935C257.683 344.858 264.198 344.11 270.73 340.699C273.264 339.375 275.9 338.346 276.587 338.411C277.274 338.476 289.288 356.755 303.285 379.03Z" fill="#364A3E"/>
</svg>
