<svg width="458" height="512" viewBox="0 0 458 512" fill="none" xmlns="http://www.w3.org/2000/svg">
<path fill-rule="evenodd" clip-rule="evenodd" d="M179.001 0.337241C151.089 4.44424 125.725 15.7822 109.675 31.3282C104.906 35.9472 104.33 36.9262 104.917 39.4052C105.285 40.9562 106.517 43.0142 107.654 43.9762C111.266 47.0322 114.795 46.1702 121.454 40.6062C139.539 25.4942 162.821 16.4252 187.001 15.0742C237.512 12.2512 284.082 44.0942 299.837 92.2262C302.292 99.7262 306.071 118.49 305.285 119.276C305.089 119.472 302.596 118.477 299.744 117.066C296.497 115.459 292.145 114.307 288.099 113.982L281.637 113.463L280.48 108.637C279.214 103.363 273.916 93.8932 269.684 89.3402C265.254 84.5752 255.519 78.7892 248.183 76.5612C242.564 74.8542 239.552 74.5552 231.959 74.9532C223.941 75.3722 221.61 75.9302 215.318 78.9382C211.24 80.8882 205.143 85.0022 201.546 88.2302C197.996 91.4172 192.596 95.1892 189.546 96.6122C184.144 99.1342 183.319 99.2152 157.501 99.7782C128.906 100.402 126.272 100.841 118.394 106.3C116.195 107.824 113.131 110.681 111.586 112.648C103.989 122.319 103.176 127.474 103.747 162.35C104.146 186.642 104.475 191.22 106.308 197.959C111.345 216.483 117.475 226.876 131.679 240.976L141.501 250.725V308.226V365.726H136.211C111.733 365.726 87.3824 344.837 82.0054 319.226C79.8164 308.799 79.8034 124.935 81.9904 110.423C83.7644 98.6562 88.0464 85.4392 93.5434 74.7622C96.5594 68.9042 97.4194 66.2472 96.9294 64.2952C95.5624 58.8502 88.5224 56.9312 84.7544 60.9762C81.5234 64.4452 75.0594 78.1912 71.6884 88.7592C65.6344 107.741 65.5064 110.238 65.4524 210.354L65.4034 301.226L56.7024 306.712C46.1264 313.38 32.2264 326.455 24.3484 337.145C13.3514 352.069 4.7204 372.187 1.3604 390.726C0.3424 396.346 0.00140031 409.882 0.00140031 444.726C0.00140031 496.921 -0.289601 494.658 7.5184 503.129C10.2994 506.146 13.5114 508.334 17.1644 509.701C22.6264 511.745 23.1614 511.749 224.82 511.488L427.001 511.226L433.681 508.061C446.047 502.203 454.017 491.973 456.536 478.726C458.236 469.791 455.415 456.7 450.423 450.354L448.427 447.816L451.543 446.205C455.277 444.274 457.884 438.745 456.986 434.659C456.641 433.087 454.128 429.557 451.401 426.816C445.271 420.654 443.199 415.977 443.158 408.206C443.12 401.053 446.796 393.264 452.13 389.195C456.753 385.669 458.303 380.218 456.039 375.447C452.927 368.89 451.887 368.726 413.322 368.726H378.946L376.06 361.976C372.18 352.901 365.75 341.844 362.395 338.476C357.842 333.906 351.343 335.617 349.998 341.739C349.462 344.181 350.082 345.93 353.276 350.988C357.104 357.05 362.501 367.116 362.501 368.193C362.501 368.486 344.276 368.726 322.001 368.726C299.726 368.726 281.501 368.366 281.501 367.926C281.501 354.964 276.632 321.672 272.663 307.492L270.778 300.757L272.89 301.209C296.54 306.272 308.936 310.875 321.422 319.232C325.788 322.155 330.241 324.826 331.316 325.167C335.985 326.649 341.549 320.605 340.003 315.732C338.258 310.234 312.803 296.034 296.139 291.263C291.265 289.868 286.503 288.726 285.556 288.726C284.609 288.726 283.614 288.506 283.345 288.237C283.076 287.968 286.939 283.552 291.928 278.425C302.284 267.783 309.136 257.1 314.127 243.814C320.343 227.265 320.667 222.975 320.27 162.425L319.916 108.226L316.825 96.7262C310.478 73.1022 299.355 53.5092 283.034 37.1992C265.17 19.3472 243.134 7.48624 218.001 2.19424C210.307 0.574241 185.439 -0.609759 179.001 0.337241ZM248.501 92.6862C256.4 96.7342 260.264 100.499 263.716 107.512L267.001 114.186V151.206C267.001 193.391 266.867 194.368 258.86 210.671C255.001 218.526 252.772 221.557 245.611 228.686C235.928 238.326 227.735 243.522 216.001 247.466C208.731 249.91 206.632 250.155 193.001 250.155C179.37 250.155 177.271 249.91 170.001 247.466C146.244 239.481 128.389 220.638 121.267 196.035C119.147 188.713 119.006 186.386 119.004 158.726L119.001 129.226L121.514 124.739C123.167 121.785 125.56 119.392 128.514 117.739C132.899 115.283 133.59 115.213 159.001 114.672C182.51 114.171 185.607 113.904 191.33 111.885C199.202 109.107 204.334 105.914 211.91 99.0792C219.994 91.7842 225.772 89.6182 236.001 90.0462C241.901 90.2932 245.183 90.9862 248.501 92.6862ZM293.01 130.591C297.903 132.814 302.87 138.283 304.511 143.257C308.538 155.459 299.003 169.662 286.751 169.71L282.501 169.726V149.226V128.726L285.751 128.748C287.539 128.76 290.805 129.589 293.01 130.591ZM305.208 204.226C304.648 226.844 303.831 230.973 297.091 245.226C290.252 259.687 280.713 270.565 266.593 280.005C261.315 283.533 261.098 283.586 257.593 282.171C252.577 280.147 246.97 273.646 245.622 268.29C245.005 265.843 244.501 260.735 244.501 256.94V250.039L249.505 245.82C266.895 231.156 277.314 213.389 280.932 192.226L282.128 185.226L288.655 184.659C292.561 184.319 297.154 183.115 300.092 181.659L305.001 179.226L305.351 181.726C305.544 183.101 305.479 193.226 305.208 204.226ZM168.001 262.562C175.251 264.868 177.594 265.109 193.001 265.134C208.561 265.158 210.678 264.943 218.001 262.589C222.401 261.175 226.728 259.702 227.616 259.316C228.983 258.723 229.336 259.677 229.911 265.512C231.153 278.118 239.131 289.925 250.233 295.589C254.184 297.605 254.299 297.821 257.345 308.932C261.392 323.69 262.692 329.786 262.114 331.291C261.502 332.886 243.264 340.002 233.001 342.65C209.846 348.625 184.826 349.327 161.751 344.649L156.501 343.584V301.048C156.501 260.917 156.6 258.555 158.251 259.265C159.214 259.679 163.601 261.163 168.001 262.562ZM67.8894 325.218C71.3974 339.185 78.0824 350.315 89.3434 360.938C93.2434 364.618 98.2464 368.663 100.46 369.927L104.486 372.226L104.493 434.476L104.501 496.726L64.2514 496.722C25.6444 496.719 23.8664 496.636 20.6914 494.7C14.3124 490.811 14.2624 490.353 14.7814 440.784C15.2084 399.994 15.4254 395.482 17.3424 387.426C21.8504 368.481 31.2434 350.802 44.2934 336.702C50.6374 329.846 63.7994 318.764 65.6294 318.736C65.9754 318.73 66.9924 321.648 67.8894 325.218ZM265.501 353.586C265.501 356.81 265.787 361.535 266.137 364.086L266.773 368.726H256.186C238.416 368.726 229.348 371.783 220.308 380.823C208.296 392.836 205.514 411.748 213.568 426.654C215.181 429.639 216.501 432.379 216.501 432.743C216.501 433.107 215.447 433.885 214.159 434.472C212.871 435.059 211.02 437.221 210.044 439.276C208.557 442.409 208.455 443.629 209.411 446.82C210.048 448.946 211.787 451.505 213.351 452.619C217.706 455.72 221.377 461.776 222.603 467.881C224.35 476.579 222.035 483.154 214.55 490.757L208.673 496.726H164.087H119.501V437.609V378.493L121.751 379.164C122.989 379.533 128.726 380.083 134.501 380.385C144.361 380.902 145.214 380.792 148.501 378.573C152.851 375.636 156.501 368.623 156.501 363.202V359.102L163.751 360.436C175.11 362.527 198.705 363.182 211.643 361.766C225.141 360.288 241.582 356.289 254.001 351.463C258.951 349.539 263.564 347.911 264.251 347.845C265.122 347.762 265.501 349.501 265.501 353.586ZM435.501 384.298C435.501 384.612 434.426 386.75 433.112 389.048C431.798 391.346 430.188 394.914 429.534 396.976L428.346 400.726H338.378H248.41L245.956 403.181C242.827 406.309 242.827 410.143 245.956 413.271L248.41 415.726H338.378H428.346L429.535 419.476C430.189 421.539 431.799 425.195 433.113 427.602C434.426 430.009 435.501 432.146 435.501 432.352C435.501 433.303 244.744 432.643 241.276 431.68C235.708 430.134 229.431 424.831 226.556 419.243C219.864 406.24 226.88 389.529 240.868 385.153C244.12 384.135 265.306 383.846 340.251 383.793C392.639 383.756 435.501 383.983 435.501 384.298ZM426.005 449.382C428.919 450.375 432.575 452.747 435.133 455.306C446.298 466.47 443.857 484.665 430.049 493.202L425.159 496.226L327.83 496.495C274.299 496.643 230.501 496.588 230.501 496.371C230.501 496.155 231.576 494.009 232.889 491.602C234.203 489.195 235.813 485.539 236.467 483.476L237.656 479.726H327.624H417.592L420.046 477.271C421.396 475.921 422.501 473.651 422.501 472.226C422.501 470.801 421.396 468.531 420.046 467.181L417.592 464.726H327.624H237.656L236.467 460.976C235.813 458.914 234.203 455.257 232.889 452.85C231.576 450.443 230.501 448.306 230.501 448.1C230.501 447.894 273.396 447.726 325.823 447.726C411.925 447.726 421.615 447.886 426.005 449.382Z" fill="#364A3E"/>
</svg>
